<svg width="500" height="500" viewBox="0 0 500 500" fill="none" xmlns="http://www.w3.org/2000/svg">
<rect width="500" height="500" fill="white"/>
<path d="M274.213 177.092C276.332 176.414 277.629 176.203 279.835 175.836C278.115 176.473 276.384 177.076 274.64 177.644L274.213 177.092Z" fill="#BBBCC1"/>
<path d="M274.213 177.092C276.332 176.414 277.629 176.203 279.835 175.836C278.115 176.473 276.384 177.076 274.64 177.644L274.213 177.092Z" fill="#BBBCC1"/>
<path d="M216.516 164.528C228.124 153.267 241.533 150.956 256.693 147.363L285.367 140.542L292.118 144.237C289.988 145.9 286.4 148.86 284.284 150.274C284.319 154.038 284.259 158.529 284.475 162.23C286.562 163.259 288.684 164.282 290.759 165.333C284.292 166.255 277.248 168.505 270.734 169.867C263.838 171.31 256.742 173.114 249.947 175.011C244.852 176.434 242.441 180.844 248.94 182.57C264.42 186.682 291.238 183.018 296.124 203.278C297.699 209.71 296.616 216.504 293.122 222.128C283.226 238.102 257.508 240.835 240.505 243.371C227.266 245.245 214.048 247.264 200.853 249.429C207.593 247.009 216.883 244.663 223.933 242.609C235.03 239.36 246.094 235.998 257.122 232.521C255.424 232.35 242.796 234.877 240.387 235.31L195.089 243.062C191.434 243.663 187.773 244.255 184.117 244.853C181.779 245.235 179.331 245.953 176.99 246.074L176.969 245.894C177.828 245.766 178.394 245.459 179.211 245.248L187.374 243.184C196.771 240.803 206.145 238.329 215.493 235.764L244.535 227.95C250.138 226.45 256.862 224.927 262.192 222.967C244.647 226.228 226.6 228.856 208.977 231.783C206.734 232.156 195.147 234.071 193.872 233.99C195.029 233.827 196.708 233.198 197.975 232.891C205.502 231.064 212.984 228.956 220.464 226.936L244.202 220.589C248.254 219.495 252.421 218.464 256.37 217.198C258.651 216.466 263.061 215.066 262.126 212.02C261.136 208.795 253.13 208.358 250.442 207.935C237.731 205.931 220.194 205.811 212.961 193.185L197.613 196.124L225.912 183.371C229.516 181.772 233.905 179.686 237.518 178.255L237.218 178.275C234.317 178.485 223.511 181.126 220.164 181.872C209.759 184.184 199.334 186.41 188.892 188.55C187.497 188.84 181.736 190.263 180.746 190.056L241.144 170.074C251.628 166.563 262.845 162.55 273.387 159.311L272.96 158.759L223.909 170.215L208.593 173.79C206.335 174.32 203.247 175.176 201.027 175.559C206.439 173.4 213.84 171.247 219.523 169.302L259.28 155.703C265.058 153.738 273.636 151.081 279.066 148.749C258.56 153.486 236.887 160.159 216.516 164.528Z" fill="url(#paint0_linear_1_339)"/>
<path d="M243.184 192.104C251.237 191.701 259.627 192.342 267.603 193.359C277.557 194.627 289.154 199.065 288.599 211.16C288.284 218.055 284.62 222.172 279.859 226.597C278.891 227.353 277.811 228.116 276.816 228.85C279.654 225.437 282.588 222.785 283.762 218.367C288.897 199.016 266.263 196.097 252.892 193.828C249.769 193.298 246.19 193.093 243.436 192.188L243.184 192.104Z" fill="white"/>
<path d="M230.445 195.8C230.912 195.844 233.177 196.481 233.702 196.66C244.429 200.33 270.625 195.647 274.705 209.525C273.343 208.421 272.331 206.698 270.196 205.669C258.544 200.054 241.484 202.798 230.445 195.8Z" fill="white"/>
<path d="M323.3 131.667C323.22 133.361 312.121 159.578 310.584 163.256C309.613 160.487 308.32 157.488 307.286 154.649C304.117 157.04 301.003 159.527 297.768 161.824C299.654 159.679 302.293 156.67 303.868 154.358L303.937 148.935C303.215 148.838 298.068 153.547 297.172 154.309C294.82 153.248 292.252 151.922 289.914 150.779C292.542 148.881 296.086 145.838 298.711 143.724C296.86 142.421 293.537 140.602 291.495 139.402C294.161 138.489 299.512 137.356 302.46 136.646L323.3 131.667Z" fill="url(#paint1_linear_1_339)"/>
<path d="M288.454 152.252L295.744 155.67C295.703 158.28 295.774 161.084 295.79 163.71C293.792 162.552 290.546 161.13 288.383 160.107L288.454 152.252Z" fill="url(#paint2_linear_1_339)"/>
<path d="M229.737 279.148C236.498 279.025 251.147 278.193 257.827 280.071C267.268 282.724 255.741 299.793 251.629 302.97C250.557 303.798 247.953 304.821 246.276 305.478L249.444 318.55C246.427 318.562 241.114 319.214 238.302 318.168C237.476 317.861 237.487 316.986 237.158 315.889L235.025 306.28H227.591C225.728 309.914 223.7 314.755 221.988 318.562L211.169 318.54C217.164 305.319 223.354 292.186 229.737 279.148Z" fill="#212121"/>
<path d="M236.196 287.446C240.211 287.367 246.549 286.341 248.939 289.833C249.037 292.81 246.674 295.324 244.77 297.43C240.596 298.228 235.802 297.953 231.51 297.891L236.196 287.446Z" fill="white"/>
<path d="M319.83 279.085L330.422 279.112C325.029 291.961 318.406 305.781 312.601 318.559L302.07 318.596C299.902 310.418 297.813 302.263 295.254 294.197C291.444 302.264 287.733 310.377 284.122 318.534L273.751 318.565C278.218 307.147 286.249 290.509 291.471 279.149L302.833 279.054C304.733 287.273 306.796 294.79 309.072 302.904C312.653 296.359 316.763 286.126 319.83 279.085Z" fill="#212121"/>
<path d="M188.397 279.056C207.274 279.336 233.746 273.601 211.081 302.205C206.515 307.967 195.5 306.594 188.982 306.464C184.869 306.255 182.284 315.102 180.773 318.558L170.211 318.593C176.2 305.38 182.262 292.202 188.397 279.056Z" fill="#212121"/>
<path d="M194.964 287.524C199.164 287.387 205.365 286.188 207.341 290.57C207.246 293.371 204.658 296.334 202.728 298.217C198.74 298.364 194.168 298.284 190.132 298.305C191.682 294.723 193.36 291.091 194.964 287.524Z" fill="white"/>
<path d="M157.544 279.126C165.072 278.967 172.895 279.111 180.445 279.147L176.134 287.485C169.692 287.51 154.857 285.445 151.399 291.752C152.95 298.661 178.582 289.739 169.581 306.793C165.466 314.59 162.534 318.029 153.26 318.577L129.192 318.573L133.382 310.105C139.242 310.114 150.015 310.535 155.957 309.578C157.441 309.34 158.651 306.396 159.127 304.894C156.769 299.78 128.086 308.264 145.354 285.247C148.523 281.024 152.544 279.81 157.544 279.126Z" fill="#212121"/>
<path d="M335.128 279.069L371.077 279.137L367.038 287.512L354.416 287.436L344.378 309.761L340.381 318.609L329.66 318.515C333.856 308.446 339.019 297.566 343.522 287.538L330.989 287.49L335.128 279.069Z" fill="#212121"/>
<path d="M272.716 279.103L283.51 279.152C277.57 292.352 271.547 305.514 265.439 318.637L254.377 318.556C260.35 305.853 266.474 291.373 272.716 279.103Z" fill="#212121"/>
<path d="M215.92 361.095L219.51 339.466H224.738L221.866 356.85H230.864L230.146 361.095H215.92ZM241.985 361.095H236.366L247.255 339.466H254.215L257.922 361.095H252.303L249.927 344.915H249.758L241.985 361.095ZM242.661 352.583H254.405L253.729 356.554H241.985L242.661 352.583ZM264.414 361.095L268.005 339.466H277.024C278.644 339.466 279.964 339.695 280.985 340.152C282.006 340.61 282.724 341.251 283.139 342.074C283.562 342.898 283.681 343.852 283.498 344.936C283.351 345.753 283.048 346.485 282.59 347.133C282.139 347.774 281.576 348.309 280.9 348.739C280.224 349.161 279.478 349.457 278.661 349.626L278.619 349.837C279.492 349.872 280.263 350.104 280.932 350.534C281.608 350.963 282.108 351.565 282.432 352.34C282.756 353.107 282.83 354.009 282.653 355.044C282.463 356.205 281.995 357.244 281.249 358.159C280.51 359.067 279.534 359.786 278.323 360.314C277.112 360.835 275.711 361.095 274.12 361.095H264.414ZM270.36 356.881H273.592C274.711 356.881 275.577 356.667 276.19 356.237C276.81 355.8 277.176 355.202 277.288 354.442C277.38 353.885 277.331 353.407 277.14 353.005C276.95 352.597 276.634 352.284 276.19 352.065C275.746 351.84 275.187 351.727 274.511 351.727H271.184L270.36 356.881ZM271.765 348.358H274.669C275.232 348.358 275.75 348.263 276.222 348.073C276.7 347.883 277.095 347.608 277.405 347.249C277.721 346.89 277.919 346.457 277.996 345.95C278.116 345.225 277.95 344.655 277.5 344.239C277.049 343.824 276.391 343.616 275.525 343.616H272.546L271.765 348.358Z" fill="black"/>
<defs>
<linearGradient id="paint0_linear_1_339" x1="236.9" y1="140.542" x2="236.9" y2="249.429" gradientUnits="userSpaceOnUse">
<stop stop-color="#37A5FF"/>
<stop offset="1" stop-color="#15308F"/>
</linearGradient>
<linearGradient id="paint1_linear_1_339" x1="306.607" y1="131.667" x2="306.607" y2="163.256" gradientUnits="userSpaceOnUse">
<stop stop-color="#37A5FF"/>
<stop offset="1" stop-color="#15308F"/>
</linearGradient>
<linearGradient id="paint2_linear_1_339" x1="292.087" y1="152.252" x2="292.087" y2="163.71" gradientUnits="userSpaceOnUse">
<stop stop-color="#37A5FF"/>
<stop offset="1" stop-color="#15308F"/>
</linearGradient>
</defs>
</svg>
